<?xml version="1.0" encoding="utf-8"?>
<!-- Generator: Adobe Illustrator 28.1.0, SVG Export Plug-In . SVG Version: 6.00 Build 0)  -->
<svg version="1.1" id="Layer_1" xmlns="http://www.w3.org/2000/svg" xmlns:xlink="http://www.w3.org/1999/xlink" x="0px" y="0px"
	 viewBox="0 0 1024.7 270.9" style="enable-background:new 0 0 1024.7 270.9;" xml:space="preserve">
<style type="text/css">
	.st0{fill:#1881D5;}
	.st1{enable-background:new    ;}
	.st2{fill:#252525;}
</style>
<g>
	<g>
		<g>
			<g>
				<g>
					<path class="st0" d="M281.7,87.4c0-9.6,7.8-17,19.6-17s19.6,6.9,19.6,16.5c0,10.1-7.8,17.5-19.6,17.5S281.7,97.1,281.7,87.4z
						 M285.3,114.6h32V206h-32V114.6z"/>
					<path class="st0" d="M435.1,80.9V206h-30.5v-9.1c-6.1,7.2-15,10.6-26.8,10.6c-25,0-45-18.2-45-47.4c0-29,20.1-47,45-47
						c10.6,0,19.2,3,25.3,9.4V80.9H435.1z M403.6,160.1c0-13.8-8.3-21.6-19.1-21.6c-11,0-19.2,7.8-19.2,21.6
						c0,14,8.3,21.9,19.2,21.9C395.4,182,403.6,174.1,403.6,160.1z"/>
				</g>
			</g>
		</g>
		<g class="st1">
			<path class="st2" d="M453.2,161.6c0-26.5,19.2-45,45.7-45c15,0,27.6,5.9,34.7,17.5l-8.9,6.1c-6.1-8.9-15.5-13.2-25.8-13.2
				c-19.4,0-33.6,13.8-33.6,34.6c0,20.9,14.2,34.6,33.6,34.6c10.3,0,19.7-4,25.8-13l8.9,6.1c-7.1,11.5-19.7,17.5-34.7,17.5
				C472.4,206.8,453.2,188.1,453.2,161.6z"/>
			<path class="st2" d="M637.3,154.5V206h-12v-50.2c0-18.7-9.8-28.3-26.6-28.3c-19.1,0-31,11.8-31,32V206h-12V80.9h12v51.9
				c6.6-10.3,18.2-16.2,33.2-16.2C622.5,116.6,637.3,129.1,637.3,154.5z"/>
			<path class="st2" d="M747.4,165.3h-74.2c1.3,18.5,15.5,30.9,34.9,30.9c10.8,0,20.4-3.9,27.1-11.6l6.7,7.8
				c-7.9,9.4-20.2,14.5-34.2,14.5c-27.6,0-46.5-18.9-46.5-45.2s18.4-45,43.3-45c25,0,43,18.4,43,45
				C747.5,162.6,747.4,164,747.4,165.3z M673.2,156.4h62.9c-1.5-17.4-14.2-29.5-31.5-29.5C687.4,126.9,674.7,139,673.2,156.4z"/>
			<path class="st2" d="M763.1,161.6c0-26.5,19.2-45,45.7-45c15,0,27.6,5.9,34.7,17.5l-8.9,6.1c-6.1-8.9-15.5-13.2-25.8-13.2
				c-19.4,0-33.5,13.8-33.5,34.6c0,20.9,14.2,34.6,33.5,34.6c10.3,0,19.7-4,25.8-13l8.9,6.1c-7.1,11.5-19.7,17.5-34.7,17.5
				C782.3,206.8,763.1,188.1,763.1,161.6z"/>
			<path class="st2" d="M898.4,161.5l-20.9,19.2V206h-12V80.9h12v84.8l52.9-48.4h14.8l-37.9,36.2l41.5,52.4h-14.7L898.4,161.5z"/>
			<path class="st2" d="M951.9,195.9l5.4-9.4c7.1,5.6,19.1,9.9,31.5,9.9c16.9,0,23.8-5.7,23.8-14.5c0-23.1-57.5-4.9-57.5-40
				c0-14.5,12.5-25.3,35.1-25.3c11.5,0,23.9,3.2,31.4,8.3l-5.2,9.6c-7.8-5.4-17-7.6-26.1-7.6c-16,0-23.1,6.2-23.1,14.7
				c0,23.9,57.5,5.9,57.5,40c0,15.3-13.5,25.3-36.6,25.3C973.3,206.8,959.1,202.1,951.9,195.9z"/>
		</g>
	</g>
</g>
<g>
	<path class="st2" d="M91.9,27.4c0.3,0,0.7-0.1,1-0.2c8.8-3.6,18-6.5,27.4-8.4c8.6-1.8,17.5-2.9,26.3-3.2c1.5,0,2.7-1.3,2.6-2.8
		c0-1.5-1.3-2.7-2.8-2.6c-9.1,0.3-18.3,1.4-27.3,3.3c-9.7,2-19.2,5-28.4,8.7c-1.4,0.6-2,2.2-1.5,3.5C89.8,26.8,90.8,27.4,91.9,27.4z
		"/>
	<path class="st2" d="M161.9,17.2c5.8,1,11.5,2.6,17,4.7c4.9,1.9,9.8,4.1,14.3,6.8c0.4,0.2,0.9,0.4,1.4,0.4c0.9,0,1.9-0.5,2.4-1.4
		c0.7-1.3,0.3-3-1-3.7c-4.8-2.8-9.9-5.2-15.1-7.2c-5.8-2.2-11.8-3.8-17.9-5c-1.5-0.3-2.9,0.7-3.2,2.2
		C159.4,15.5,160.4,16.9,161.9,17.2z"/>
	<path class="st2" d="M46.2,80.9c0.7,0,1.4-0.3,2-0.9c5.5-5.9,11.7-11.2,18.4-15.7c6.6-4.4,13.7-8.1,21.2-11
		c1.4-0.5,2.1-2.1,1.6-3.5s-2.1-2.1-3.5-1.6c-7.8,3-15.3,6.9-22.3,11.5C56.5,64.6,50,70.1,44.2,76.3c-1,1.1-1,2.8,0.1,3.8
		C44.8,80.7,45.5,80.9,46.2,80.9z"/>
	<path class="st2" d="M98.8,50.4c0.4,0,0.8-0.1,1.2-0.3c8-4,16.5-6.6,25.3-7.8c8.3-1.1,16.7-1,24.9,0.4c1.5,0.3,2.9-0.7,3.1-2.2
		c0.3-1.5-0.7-2.9-2.2-3.1c-8.8-1.5-17.7-1.6-26.6-0.4c-9.4,1.3-18.5,4.1-27,8.3c-1.3,0.7-1.9,2.3-1.2,3.6
		C96.9,49.8,97.8,50.4,98.8,50.4z"/>
	<path class="st2" d="M81.5,87.7c0.6,0,1.3-0.2,1.8-0.7c6.3-5.4,13.4-9.9,21-13.2c9.2-4.1,19.1-6.4,29.2-7c1.5-0.1,2.6-1.4,2.6-2.9
		c-0.1-1.5-1.4-2.6-2.9-2.6c-10.8,0.6-21.3,3.1-31.1,7.5c-8.1,3.6-15.6,8.3-22.4,14.1c-1.1,1-1.3,2.7-0.3,3.8
		C80,87.4,80.8,87.7,81.5,87.7z"/>
	<path class="st2" d="M130,88c-9.9,2.3-19.1,6.4-27.5,12.1C95.4,105,89.1,111,83.8,118c-0.9,1.2-0.7,2.9,0.5,3.8
		c0.5,0.4,1.1,0.5,1.6,0.5c0.8,0,1.6-0.4,2.2-1.1c4.9-6.5,10.8-12.1,17.5-16.7c7.8-5.3,16.4-9.1,25.6-11.3c1.5-0.3,2.4-1.8,2-3.3
		S131.4,87.7,130,88z"/>
	<path class="st2" d="M214.9,177.7c-7.6-5.2-14.2-12.1-18.9-20c-0.8-1.3-2.4-1.7-3.7-1c-1.3,0.8-1.7,2.4-1,3.7
		c5.1,8.6,12.2,16.2,20.5,21.8c7.7,5.2,16.3,8.7,25.5,10.5c0.2,0,0.3,0,0.5,0c1.3,0,2.4-0.9,2.7-2.2c0.3-1.5-0.7-2.9-2.2-3.2
		C230,185.7,222.1,182.5,214.9,177.7z"/>
	<path class="st2" d="M178.7,262.5c-6.5-1.5-12.5-4.2-18-8c-5.6-3.9-10.4-8.8-14.2-14.5l-2.1-3.2l-2.3,3.1c-3.7,5-8.2,9.4-13.1,13.1
		c-4.6,3.5-9.7,6.3-15.1,8.5c-1.4,0.6-2.1,2.1-1.5,3.5s2.1,2.1,3.5,1.5c5.8-2.3,11.3-5.4,16.3-9.2c4.4-3.3,8.4-7.1,11.9-11.3
		c3.8,5,8.3,9.4,13.5,13c6,4.2,12.7,7.2,19.8,8.9c0.2,0.1,0.4,0.1,0.6,0.1c1.2,0,2.3-0.8,2.6-2.1C181,264.3,180.1,262.9,178.7,262.5
		z"/>
	<path class="st2" d="M153.1,260.5c-2.5-2.7-4.9-5.3-8.4-5.3l0,0c-2.7,0-4.6,1.6-7.8,4.3c-1.7,1.4-3.3,3-4.7,4.7
		c-1,1.1-0.8,2.9,0.3,3.8c1.1,1,2.9,0.8,3.8-0.3c1.2-1.5,2.6-2.9,4.1-4.1c2.1-1.8,3.5-3,4.2-3l0,0c1.2,0,2.7,1.6,4.4,3.5
		c1.1,1.2,2.1,2.5,2.9,3.9c0.5,0.9,1.4,1.4,2.4,1.4c0.5,0,0.9-0.1,1.3-0.3c1.3-0.7,1.8-2.4,1-3.7C155.7,263.7,154.5,262,153.1,260.5
		z"/>
	<path class="st2" d="M192.3,255.7c-7.3-1.7-14.2-4.7-20.4-8.9c-6.7-4.4-12.4-10-17-16.6c-0.9-1.2-2.5-1.5-3.8-0.7
		c-1.2,0.9-1.5,2.5-0.7,3.8c5,7.1,11.2,13.2,18.4,18c6.8,4.5,14.3,7.7,22.2,9.6c0.2,0.1,0.4,0.1,0.6,0.1c1.2,0,2.3-0.8,2.6-2.1
		C194.7,257.5,193.8,256,192.3,255.7z"/>
	<path class="st2" d="M217.5,236c-8.3-1.5-16.3-4.3-23.8-8.2c-9.1-4.7-17.2-11-24.2-18.7c-1-1.1-2.7-1.2-3.8-0.2s-1.2,2.7-0.2,3.8
		c7.4,8.2,16,14.9,25.7,19.9c7.9,4.1,16.5,7.1,25.3,8.7c0.2,0,0.3,0,0.5,0c1.3,0,2.4-0.9,2.7-2.2C220,237.7,219,236.2,217.5,236z"/>
	<path class="st2" d="M237.8,213.8c-7.9-0.7-15.6-2.7-22.9-5.8c-7.4-3.2-14.2-7.5-20.2-12.8c-1.1-1-2.8-0.9-3.8,0.2
		c-1,1.1-0.9,2.8,0.2,3.8c6.5,5.7,13.7,10.3,21.6,13.7c7.8,3.4,16.1,5.5,24.5,6.2c0.1,0,0.2,0,0.3,0c1.4,0,2.6-1.1,2.7-2.5
		C240.4,215.3,239.3,214,237.8,213.8z"/>
	<path class="st2" d="M220.8,144.1c-5.6-7.3-10.4-15.2-14.1-23.6c-0.6-1.4-2.2-2-3.6-1.4c-1.4,0.6-2,2.2-1.4,3.6
		c3.9,8.8,8.9,17.1,14.8,24.7c5,6.4,10.7,12.4,16.9,17.7c0.5,0.4,1.1,0.7,1.8,0.7c0.8,0,1.5-0.3,2.1-0.9c1-1.1,0.8-2.9-0.3-3.8
		C231,155.9,225.6,150.2,220.8,144.1z"/>
	<path class="st2" d="M34.6,108.2l3.3,2.8l22.6,19l4.1,3.5l15.6,13.1l4.1,3.5l3.3,2.8l4.2,3.5l13.4,11.3c2.5,2.1,6.2,1.9,8.5-0.6
		l48.4-53l3.7-4.1l5.9-6.5l3.7-4l8.9-9.8l3.8-4.2l4.3-4.8l3.8-4.1l4.7-5.1l3.7-4.1l6.5-7.1l3.7-4.1l3.1-3.5l3.7-4L234.3,35
		c1.3-1.4-0.7-3.3-2.1-2l-13.6,13.1c-2.9-2.6-6-4.9-9.2-7C191.3,27.3,174,26.2,154,24.9c-23.9-1.5-43.2,2.5-55.1,6
		C86.3,34.7,74.3,40,63.1,46.8c-1.3,0.8-1.7,2.4-0.9,3.7s2.4,1.7,3.7,0.9c10.8-6.6,22.4-11.7,34.5-15.3c11.5-3.4,30.1-7.2,53.2-5.8
		c19.3,1.2,35.9,2.2,52.8,13.2c2.9,1.9,5.6,4,8.3,6.2l-4.1,3.9c-2-1.2-4-2.3-6-3.3c-12.5-6.4-25.9-10.4-39.9-11.9
		c-1.5-0.1-2.8,0.9-3,2.4s0.9,2.8,2.4,3c13.3,1.5,26.1,5.3,38.1,11.4c1.5,0.8,3,1.6,4.5,2.4l-7.3,7c-13.9-7.2-30.4-12.7-49.3-13.8
		c-9.6-0.5-34.9-0.4-62.8,12.7c-25,11.8-41.4,28.8-51,41.6l-1.7-1.2c-1.6-1.2-3.4,1-2,2.4L34.6,108.2z M111.3,149.6
		c-2.3,2.2-5.7,2.5-8.3,0.7l-4.3-2.9c1.6-2.1,2.7-3.4,3.1-3.9c8.5-10.1,19.1-19,31.5-26.3c1.3-0.8,1.7-2.4,0.9-3.7
		c-0.8-1.3-2.4-1.7-3.7-0.9c-12.9,7.7-24,17-32.9,27.5c-0.5,0.5-1.5,1.9-3.4,4.4l-3.1-2.1c0.3-0.4,0.7-0.8,1-1.2
		c2.5-3,4.7-5.6,6.7-8c11.8-14,14.6-17.4,21-20.7c3.6-1.9,11.2-5.8,21.1-5.3c4,0.2,8,1.1,11.9,2.5L111.3,149.6z M167.8,95.1
		c-6.7-3.3-14.5-5.3-23.4-5.9c-1.5-0.1-2.8,1-2.9,2.5c-0.1,1.5,1,2.8,2.5,2.9c7.3,0.5,13.9,2,19.6,4.5l-6.6,6.3
		c-5.1-2.2-10.5-3.5-15.9-3.8c-11.5-0.6-20.2,4-23.9,5.9c-7.4,3.9-10.6,7.7-22.7,22.1c-2,2.4-4.2,5-6.7,8c-0.5,0.6-0.9,1.1-1.4,1.6
		L69,127.4c0.8-1.2,1.5-2.5,2.3-3.7c2-3.3,4.1-6.8,7.2-10.8c4.4-5.6,16.8-19.6,36.6-26.9c20.2-7.4,37.9-4.2,46.4-2.7
		c4.3,0.8,9.5,1.7,14.9,3.5L167.8,95.1z M89.5,68.6c26.8-12.6,51-12.7,60.2-12.2c17.3,1,32.5,5.8,45.4,12.3l-5.2,5
		c-0.8-0.4-1.6-0.8-2.4-1.1c-12.6-5.8-26.2-9.6-40.2-11.1c-1.5-0.2-2.8,0.9-3,2.4s0.9,2.8,2.4,3c13.5,1.5,26.5,5.1,38.6,10.6
		c0.2,0.1,0.3,0.2,0.5,0.2l-5.1,4.9c-6.9-2.6-13.4-3.7-18.3-4.6c-8.3-1.5-27.7-5-49.3,2.9c-21.1,7.7-34.3,22.6-39,28.6
		c-3.3,4.3-5.5,7.9-7.6,11.3c-0.7,1.2-1.4,2.3-2.1,3.5l-10.2-6.8l0,0c3.3-5,7-9.7,11.1-14.1c2.9-3.2,6.1-6.2,9.4-9
		c1.1-1,1.3-2.7,0.3-3.8c-1-1.1-2.7-1.3-3.8-0.3c-3.5,3-6.8,6.1-9.9,9.5c-4.3,4.6-8.2,9.6-11.6,14.8l0,0l-9.1-6.1
		C50,96.1,65.6,79.8,89.5,68.6z"/>
	<path class="st2" d="M268.3,0.7L226.5,65l-3,4.6l-4.7,7.3l-3,4.6l-3.7,5.8l-3,4.6l-4.1,6.3l-3,4.7L190.7,120l-3.3,5.1l-5.5,8.4
		l-3.6,5.5l-4.7,7.2l-3.6,5.6l-6.4,9.8l-3.2,5l-4,6.2L153,178l-6.7,10.4l-3.1,4.8L140,198l-3.1,4.7l-21,32.2
		c-1.1,1.7-3.6,1.8-4.8,0.1l-1.7-2.4l-3.3-4.6l-2.6-3.7l-3.2-4.5l-4.7-6.7l-3.2-4.6l-3.5-4.9l-3.1-4.4l-3.9-5.5l-3.1-4.5l-5.8-8.3
		l-3.2-4.6l-4.9-7l-3.1-4.4l-3.7-5.2l-3.1-4.5l-5.5-7.9l-3.1-4.4L3.9,82.8C2.3,80.6-1,82.7,0.3,85l39,61.9c-1.9,1-3.9,1.9-5.9,2.8
		c-1.4,0.6-2,2.2-1.5,3.6c0.6,1.4,2.2,2,3.5,1.4c2.3-1,4.5-2,6.7-3.2l5.3,8.5c-3.7,1.8-7.7,3.1-11.8,3.6c-1.5,0.2-2.5,1.5-2.3,3
		c0.2,1.4,1.3,2.4,2.7,2.4c0.1,0,0.2,0,0.4,0c4.8-0.6,9.6-2.1,14-4.4l3.3,5.3c-4.8,2.8-10,5.2-15.4,7.1c-1.4,0.5-2.2,2.1-1.6,3.5
		c0.4,1.1,1.4,1.8,2.6,1.8c0.3,0,0.6-0.1,0.9-0.2c5.8-2.1,11.3-4.6,16.4-7.6l5.9,9.3c-2.5,2-5.1,3.5-8.3,4.4
		c-4.1,1.2-8.5,1.3-13.2,0.3c-1.5-0.3-2.9,0.7-3.2,2.1c-0.3,1.5,0.7,2.9,2.1,3.2c2.4,0.5,4.8,0.7,7.1,0.7c3,0,5.9-0.4,8.6-1.2
		c3.8-1.1,6.9-2.7,9.7-5l4.3,6.8c-1.9,1-3.9,1.9-6,2.7c-6.4,2.4-13.2,3.4-20.2,3.1c-1.5-0.1-2.8,1.1-2.8,2.6
		c-0.1,1.5,1.1,2.8,2.6,2.8c0.9,0,1.9,0.1,2.8,0.1c6.7,0,13.3-1.2,19.6-3.5c2.5-0.9,4.9-2,7.1-3.2l3.4,5.3c-2.3,1.2-4.7,2.3-7.1,3.2
		c-6.4,2.5-13.2,4.1-20.2,4.7c-1.5,0.1-2.6,1.4-2.5,2.9c0.1,1.4,1.3,2.5,2.7,2.5c0.1,0,0.2,0,0.3,0c7.5-0.7,14.7-2.3,21.6-5
		c2.8-1.1,5.4-2.3,8.1-3.7l4.4,7c-2.2,1.5-4.8,2.9-7.6,4.1c-5.1,2.1-10.6,3.1-16.2,3c-1.5,0-2.7,1.2-2.8,2.7c0,1.5,1.2,2.7,2.7,2.8
		h0.7c6.1,0,12.1-1.2,17.7-3.4c3.2-1.3,6-2.8,8.5-4.5l4.2,6.6c-1.3,0.8-2.6,1.5-4,2.2c-5.7,2.8-11.9,4.5-18.3,4.9
		c-1.5,0.1-2.6,1.4-2.5,2.9c0.1,1.4,1.3,2.5,2.7,2.5h0.2c7.1-0.5,14-2.4,20.3-5.5c1.6-0.8,3.1-1.6,4.5-2.5l3.2,5
		c-4.4,3.3-9.3,6-14.6,7.8c-1.4,0.5-2.2,2-1.7,3.5c0.4,1.1,1.4,1.8,2.6,1.8c0.3,0,0.6-0.1,0.9-0.2c5.7-2,11-4.7,15.7-8.3l5.7,9l0,0
		c-3.3,1.2-6.6,2.1-10,2.9c-1.5,0.3-2.4,1.8-2.1,3.2c0.3,1.3,1.4,2.1,2.6,2.1c0.2,0,0.4,0,0.6-0.1c4-0.9,7.9-2.1,11.8-3.5
		c2.3,4.3,3.8,7.9,6.2,3.5l5.4-8.8l0,0c0.2-0.1,0.5-0.2,0.7-0.4c9.7-5.4,18.2-12.5,25.3-21.2c1-1.2,0.8-2.9-0.4-3.8
		c-1.2-1-2.9-0.8-3.8,0.4c-4.6,5.5-9.7,10.4-15.4,14.5l18.3-30c8.3,8,17.2,15.4,26.7,21.9c11.1,7.7,23,14.2,35.4,19.6
		c0.3,0.1,0.7,0.2,1.1,0.2c1,0,2.1-0.6,2.5-1.6c0.6-1.4,0-3-1.4-3.6c-12.1-5.2-23.7-11.6-34.5-19c-9.6-6.6-18.6-14-26.9-22.2l3-5
		c2.1,2,4.3,3.8,6.6,5.4c0.5,0.4,1,0.5,1.6,0.5c0.8,0,1.7-0.4,2.2-1.1c0.9-1.2,0.6-2.9-0.6-3.8c-2.4-1.8-4.8-3.7-6.9-5.8l5.5-9.1
		c6.5,9.2,15.8,19.4,28.9,27.8c11.4,7.3,24.1,12.4,37.6,14.9c0.2,0,0.3,0.1,0.5,0.1c1.3,0,2.4-0.9,2.7-2.2c0.3-1.5-0.7-2.9-2.2-3.2
		c-12.8-2.4-24.8-7.1-35.6-14.1c-13.3-8.6-22.5-19.1-28.7-28.3l4.4-7.2c1.5,2,3.1,3.9,4.7,5.8c3.8,4.5,8,8.7,12.3,12.7
		c0.5,0.5,1.2,0.7,1.8,0.7c0.7,0,1.5-0.3,2-0.9c1-1.1,0.9-2.8-0.2-3.8c-4.2-3.8-8.2-7.9-11.8-12.2c-2-2.3-4-4.8-5.8-7.2l5.3-8.7
		c4.6,8.3,11.4,17.5,21.2,25.8c16,13.5,32.9,18.7,44.3,20.7c0.1,0,0.3,0.1,0.5,0.1c1.3,0,2.4-0.9,2.7-2.3c0.3-1.5-0.7-2.9-2.2-3.1
		c-10.7-1.9-26.7-6.8-41.7-19.5c-10.4-8.7-17.1-18.5-21.5-27l5-8.3c0.9,1.4,1.9,2.8,2.9,4.1c0.9,1.2,2.6,1.4,3.8,0.5
		s1.4-2.6,0.5-3.8c-1.4-1.9-2.8-3.9-4-5.9l5.8-9.5c0.9,1.6,1.9,3.3,3,5.1c13.1,22.1,16.1,25.8,20.2,29.6c8,7.3,18,12.4,29.8,15.1
		c0.2,0,0.4,0.1,0.6,0.1c1.2,0,2.4-0.9,2.6-2.1c0.3-1.5-0.6-2.9-2-3.3c-10.8-2.5-20-7.2-27.3-13.8c-3.6-3.3-6.5-6.9-19.2-28.3
		c-1.7-2.8-3.1-5.3-4.5-7.6l11.7-19.3c2.9,3.4,5.2,6.7,7.1,9.4c2.9,4,4.3,6.5,5.7,8.9c1.4,2.4,2.7,4.6,5.1,8
		c6,8.1,13.5,15.3,22.3,21.5c0.5,0.3,1,0.5,1.6,0.5c0.9,0,1.7-0.4,2.2-1.2c0.9-1.2,0.6-2.9-0.7-3.8c-8.4-5.9-15.5-12.7-21.1-20.3
		c-2.3-3.1-3.5-5.1-4.8-7.5c-1.4-2.4-3-5.2-6-9.4c-2.1-2.9-5-6.9-8.6-11.1l4.4-7.2c14.3,12.1,23.9,25.8,30.2,36.9
		c0.5,0.9,1.4,1.4,2.4,1.4c0.5,0,0.9-0.1,1.3-0.3c1.3-0.7,1.8-2.4,1-3.7c-6.6-11.7-16.8-26.2-32-38.9l3.7-6
		c12,9.7,20.1,19.3,23.9,24.2c0.9,1.2,2.6,1.4,3.8,0.5s1.4-2.6,0.5-3.8c-4-5.1-12.6-15.3-25.3-25.6l4.3-7.1c2.9,2.8,5.7,5.7,8.3,8.8
		c0.5,0.6,1.3,1,2.1,1c0.6,0,1.2-0.2,1.8-0.7c1.1-1,1.3-2.7,0.3-3.8c-3-3.5-6.2-6.9-9.6-10l40.4-66.3C271.7,0.5,269.3-0.9,268.3,0.7
		z"/>
</g>
</svg>
